<?xml version="1.0" encoding="UTF-8"?>
<svg id="Laag_1" xmlns="http://www.w3.org/2000/svg" version="1.1" viewBox="0 0 22 22">
  <!-- Generator: Adobe Illustrator 29.0.0, SVG Export Plug-In . SVG Version: 2.1.0 Build 186)  -->
  <defs>
    <style>
      .st0 {
        fill: #fff;
      }
    </style>
  </defs>
  <path class="st0" d="M11,1.8c-3.5,0-6.4,2.9-6.4,6.4s6.4,11.9,6.4,11.9c0,0,6.4-7.1,6.4-11.9S14.5,1.8,11,1.8ZM6.4,8.3c0-2.5,2.1-4.6,4.6-4.6s4.6,2.1,4.6,4.6-2.6,6.6-4.6,9.1c-1.9-2.4-4.6-6.4-4.6-9.1Z"/>
  <path class="st0" d="M11,10.5c1.3,0,2.3-1,2.3-2.3s-1-2.3-2.3-2.3-2.3,1-2.3,2.3,1,2.3,2.3,2.3Z"/>
</svg>