<?xml version="1.0" encoding="UTF-8"?>
<svg id="Laag_1" xmlns="http://www.w3.org/2000/svg" version="1.1" viewBox="0 0 18 18">
  <!-- Generator: Adobe Illustrator 29.0.0, SVG Export Plug-In . SVG Version: 2.1.0 Build 186)  -->
  <defs>
    <style>
      .st0 {
        fill: #fff;
      }
    </style>
  </defs>
  <path class="st0" d="M14.5,3.4c-1.5-1.5-3.4-2.3-5.5-2.3C4.7,1.1,1.2,4.6,1.2,8.9s.4,2.7,1,3.9l-1.1,4,4.1-1.1c1.1.6,2.4.9,3.7.9h0c4.3,0,7.9-3.5,7.9-7.8s-.9-4-2.4-5.5ZM9,15.4c-1.2,0-2.3-.3-3.3-.9h-.2c0-.1-2.5.5-2.5.5l.7-2.4-.2-.2c-.7-1-1-2.2-1-3.5,0-3.6,2.9-6.5,6.5-6.5s3.4.7,4.6,1.9,2,2.9,2,4.6c0,3.6-3,6.5-6.6,6.5ZM12.6,10.6c-.2,0-1.2-.6-1.3-.6-.2,0-.3,0-.4,0-.1.2-.5.6-.6.8-.1.1-.2.1-.4,0-1.1-.6-1.9-1-2.7-2.3-.2-.3.2-.3.6-1.1,0-.1,0-.2,0-.3s-.4-1.1-.6-1.4c-.2-.4-.3-.3-.4-.3-.1,0-.2,0-.4,0s-.3,0-.5.2c-.2.2-.7.7-.7,1.6s.7,1.9.8,2c0,.1,1.4,2.1,3.3,2.9,1.2.5,1.7.6,2.3.5.4,0,1.2-.5,1.3-.9s.2-.8.1-.9c0,0-.2-.1-.4-.2Z"/>
</svg>